<mxfile host="app.diagrams.net" modified="2023-09-25T19:57:10.859Z" agent="Mozilla/5.0 (X11; Linux x86_64) AppleWebKit/537.36 (KHTML, like Gecko) Chrome/117.0.0.0 Safari/537.36" etag="6sq3bC6WdLMyAVOeCNeh" version="21.8.1" type="github">
  <diagram name="Page-1" id="5cqEnjHebfaT1kJGdO-o">
    <mxGraphModel dx="1605" dy="1042" grid="1" gridSize="10" guides="1" tooltips="1" connect="1" arrows="1" fold="1" page="1" pageScale="1" pageWidth="1200" pageHeight="1920" math="0" shadow="0">
      <root>
        <mxCell id="0" />
        <mxCell id="1" parent="0" />
        <mxCell id="AM4topthDhh8O_KRF2oz-23" value="" style="rounded=0;whiteSpace=wrap;html=1;" vertex="1" parent="1">
          <mxGeometry x="260" y="420" width="690" height="300" as="geometry" />
        </mxCell>
        <mxCell id="AM4topthDhh8O_KRF2oz-26" style="edgeStyle=orthogonalEdgeStyle;rounded=0;orthogonalLoop=1;jettySize=auto;html=1;entryX=0;entryY=0.5;entryDx=0;entryDy=0;" edge="1" parent="1" source="AM4topthDhh8O_KRF2oz-1" target="AM4topthDhh8O_KRF2oz-6">
          <mxGeometry relative="1" as="geometry">
            <Array as="points">
              <mxPoint x="190" y="570" />
              <mxPoint x="190" y="500" />
            </Array>
          </mxGeometry>
        </mxCell>
        <mxCell id="AM4topthDhh8O_KRF2oz-27" style="edgeStyle=orthogonalEdgeStyle;rounded=0;orthogonalLoop=1;jettySize=auto;html=1;entryX=0;entryY=0.5;entryDx=0;entryDy=0;" edge="1" parent="1" source="AM4topthDhh8O_KRF2oz-1" target="AM4topthDhh8O_KRF2oz-7">
          <mxGeometry relative="1" as="geometry">
            <Array as="points">
              <mxPoint x="135" y="660" />
            </Array>
          </mxGeometry>
        </mxCell>
        <mxCell id="AM4topthDhh8O_KRF2oz-1" value="Homeowners" style="shape=umlActor;verticalLabelPosition=bottom;verticalAlign=top;html=1;outlineConnect=0;" vertex="1" parent="1">
          <mxGeometry x="120" y="540" width="30" height="60" as="geometry" />
        </mxCell>
        <mxCell id="AM4topthDhh8O_KRF2oz-28" style="edgeStyle=orthogonalEdgeStyle;rounded=0;orthogonalLoop=1;jettySize=auto;html=1;entryX=1;entryY=0.5;entryDx=0;entryDy=0;" edge="1" parent="1" source="AM4topthDhh8O_KRF2oz-2" target="AM4topthDhh8O_KRF2oz-9">
          <mxGeometry relative="1" as="geometry" />
        </mxCell>
        <mxCell id="AM4topthDhh8O_KRF2oz-2" value="Technician" style="shape=umlActor;verticalLabelPosition=bottom;verticalAlign=top;html=1;outlineConnect=0;" vertex="1" parent="1">
          <mxGeometry x="1050" y="540" width="30" height="60" as="geometry" />
        </mxCell>
        <mxCell id="AM4topthDhh8O_KRF2oz-10" style="edgeStyle=orthogonalEdgeStyle;rounded=0;orthogonalLoop=1;jettySize=auto;html=1;" edge="1" parent="1" source="AM4topthDhh8O_KRF2oz-6" target="AM4topthDhh8O_KRF2oz-7">
          <mxGeometry relative="1" as="geometry" />
        </mxCell>
        <mxCell id="AM4topthDhh8O_KRF2oz-11" value="Extends" style="edgeLabel;html=1;align=center;verticalAlign=middle;resizable=0;points=[];" vertex="1" connectable="0" parent="AM4topthDhh8O_KRF2oz-10">
          <mxGeometry x="0.0772" y="-3" relative="1" as="geometry">
            <mxPoint x="3" y="-4" as="offset" />
          </mxGeometry>
        </mxCell>
        <mxCell id="AM4topthDhh8O_KRF2oz-15" style="edgeStyle=orthogonalEdgeStyle;rounded=0;orthogonalLoop=1;jettySize=auto;html=1;entryX=0.5;entryY=0;entryDx=0;entryDy=0;" edge="1" parent="1" source="AM4topthDhh8O_KRF2oz-6" target="AM4topthDhh8O_KRF2oz-9">
          <mxGeometry relative="1" as="geometry" />
        </mxCell>
        <mxCell id="AM4topthDhh8O_KRF2oz-20" value="&amp;lt;&amp;lt;Uses&amp;gt;&amp;gt;" style="edgeLabel;html=1;align=center;verticalAlign=middle;resizable=0;points=[];" vertex="1" connectable="0" parent="AM4topthDhh8O_KRF2oz-15">
          <mxGeometry x="0.1197" relative="1" as="geometry">
            <mxPoint as="offset" />
          </mxGeometry>
        </mxCell>
        <mxCell id="AM4topthDhh8O_KRF2oz-6" value="Use Case 2-1. Scheduling_Appointment" style="ellipse;whiteSpace=wrap;html=1;" vertex="1" parent="1">
          <mxGeometry x="390" y="460" width="160" height="80" as="geometry" />
        </mxCell>
        <mxCell id="AM4topthDhh8O_KRF2oz-16" style="edgeStyle=orthogonalEdgeStyle;rounded=0;orthogonalLoop=1;jettySize=auto;html=1;entryX=0.5;entryY=1;entryDx=0;entryDy=0;" edge="1" parent="1" source="AM4topthDhh8O_KRF2oz-7" target="AM4topthDhh8O_KRF2oz-9">
          <mxGeometry relative="1" as="geometry" />
        </mxCell>
        <mxCell id="AM4topthDhh8O_KRF2oz-21" value="&amp;lt;&amp;lt;Uses&amp;gt;&amp;gt;" style="edgeLabel;html=1;align=center;verticalAlign=middle;resizable=0;points=[];" vertex="1" connectable="0" parent="AM4topthDhh8O_KRF2oz-16">
          <mxGeometry x="0.2373" y="2" relative="1" as="geometry">
            <mxPoint x="-11" y="2" as="offset" />
          </mxGeometry>
        </mxCell>
        <mxCell id="AM4topthDhh8O_KRF2oz-7" value="Use Case 2-2. Modifying a scheduled appointment." style="ellipse;whiteSpace=wrap;html=1;" vertex="1" parent="1">
          <mxGeometry x="390" y="620" width="160" height="80" as="geometry" />
        </mxCell>
        <mxCell id="AM4topthDhh8O_KRF2oz-9" value="Use Case 2-3. Conducting an in-person energy audit of a home." style="ellipse;whiteSpace=wrap;html=1;" vertex="1" parent="1">
          <mxGeometry x="670" y="540" width="200" height="80" as="geometry" />
        </mxCell>
        <mxCell id="AM4topthDhh8O_KRF2oz-24" value="Scheduling&amp;nbsp; System" style="text;html=1;strokeColor=none;fillColor=none;align=center;verticalAlign=middle;whiteSpace=wrap;rounded=0;" vertex="1" parent="1">
          <mxGeometry x="280" y="420" width="110" height="40" as="geometry" />
        </mxCell>
        <mxCell id="AM4topthDhh8O_KRF2oz-29" value="" style="rounded=0;whiteSpace=wrap;html=1;" vertex="1" parent="1">
          <mxGeometry x="255" y="60" width="690" height="300" as="geometry" />
        </mxCell>
        <mxCell id="AM4topthDhh8O_KRF2oz-30" value="Use Case 1-1. Connecting Electronic Devices" style="ellipse;whiteSpace=wrap;html=1;" vertex="1" parent="1">
          <mxGeometry x="370" y="110" width="160" height="80" as="geometry" />
        </mxCell>
        <mxCell id="AM4topthDhh8O_KRF2oz-31" value="Use Case 1-2. Removing Connected Electronic Devices" style="ellipse;whiteSpace=wrap;html=1;" vertex="1" parent="1">
          <mxGeometry x="650" y="110" width="160" height="80" as="geometry" />
        </mxCell>
        <mxCell id="AM4topthDhh8O_KRF2oz-32" value="Use Case 1-3. User Registration" style="ellipse;whiteSpace=wrap;html=1;" vertex="1" parent="1">
          <mxGeometry x="510" y="250" width="160" height="80" as="geometry" />
        </mxCell>
        <mxCell id="AM4topthDhh8O_KRF2oz-33" value="Registration Service" style="text;html=1;strokeColor=none;fillColor=none;align=center;verticalAlign=middle;whiteSpace=wrap;rounded=0;" vertex="1" parent="1">
          <mxGeometry x="255" y="60" width="175" height="40" as="geometry" />
        </mxCell>
        <mxCell id="AM4topthDhh8O_KRF2oz-34" value="" style="rounded=0;whiteSpace=wrap;html=1;" vertex="1" parent="1">
          <mxGeometry x="260" y="790" width="690" height="300" as="geometry" />
        </mxCell>
        <mxCell id="AM4topthDhh8O_KRF2oz-35" value="Use Case 1-1. Connecting Electronic Devices" style="ellipse;whiteSpace=wrap;html=1;" vertex="1" parent="1">
          <mxGeometry x="375" y="840" width="160" height="80" as="geometry" />
        </mxCell>
        <mxCell id="AM4topthDhh8O_KRF2oz-36" value="Use Case 1-2. Removing Connected Electronic Devices" style="ellipse;whiteSpace=wrap;html=1;" vertex="1" parent="1">
          <mxGeometry x="655" y="840" width="160" height="80" as="geometry" />
        </mxCell>
        <mxCell id="AM4topthDhh8O_KRF2oz-37" value="Use Case 1-3. User Registration" style="ellipse;whiteSpace=wrap;html=1;" vertex="1" parent="1">
          <mxGeometry x="515" y="980" width="160" height="80" as="geometry" />
        </mxCell>
        <mxCell id="AM4topthDhh8O_KRF2oz-38" value="Dashboard Analysis Service" style="text;html=1;strokeColor=none;fillColor=none;align=center;verticalAlign=middle;whiteSpace=wrap;rounded=0;" vertex="1" parent="1">
          <mxGeometry x="260" y="790" width="175" height="40" as="geometry" />
        </mxCell>
      </root>
    </mxGraphModel>
  </diagram>
</mxfile>
